<svg xmlns="http://www.w3.org/2000/svg" viewBox="0 0 1200 720" role="img" aria-labelledby="_R_0_-t _R_0_-d" width="1200" height="720"><title id="_R_0_-t">A young couple starting their first estate plan</title><desc id="_R_0_-d">Two adults, drawn as simple faceless figures, stand side by side under a heart. Two linked rings float above them, and a short signed document and a small apartment building sit beside them. It shows a newly married couple putting a simple plan in place.</desc><g><rect width="1200" height="720" style="fill:#fbf8f3"></rect><circle cx="600" cy="330" r="300" style="fill:#f7e6da"></circle><path d="M 0 610 Q 300 576 600 602 T 1200 596 V 720 H 0 Z" style="fill:#f3ebdf"></path></g><g><circle cx="1020" cy="150" r="57.6" style="fill:#f8edd2"></circle><circle cx="1020" cy="150" r="36" style="fill:#e2ae45"></circle></g><g transform="translate(190 140) scale(1)" style="fill:#ffffff"><rect x="-60" y="-10" width="120" height="32" rx="16"></rect><circle cx="-12" cy="-14" r="22"></circle><circle cx="22" cy="-8" r="16"></circle></g><g transform="translate(300 612) scale(1.3)"><path d="M 0 0 V -46" style="stroke:#6f957a;fill:none" stroke-width="4" stroke-linecap="round" stroke-linejoin="round"></path><path d="M 0 -30 C -30 -30 -34 -56 -34 -56 C -8 -58 0 -44 0 -30 Z" style="fill:#6f957a"></path><path d="M 0 -42 C 28 -42 32 -70 32 -70 C 6 -72 0 -58 0 -42 Z" style="fill:#6f957a"></path></g><g transform="translate(940 612) scale(1.4)"><g transform="translate(0 -34) scale(1.2)"><path d="M 0 0 V -46" style="stroke:#6f957a;fill:none" stroke-width="4" stroke-linecap="round" stroke-linejoin="round"></path><path d="M 0 -30 C -30 -30 -34 -56 -34 -56 C -8 -58 0 -44 0 -30 Z" style="fill:#6f957a"></path><path d="M 0 -42 C 28 -42 32 -70 32 -70 C 6 -72 0 -58 0 -42 Z" style="fill:#6f957a"></path></g><path d="M -26 -36 H 26 L 20 0 H -20 Z" style="fill:#c06a40"></path><rect x="-30" y="-42" width="60" height="12" rx="6" style="fill:#c06a40"></rect></g><g transform="translate(600 180)"><circle cx="-34" cy="0" r="44" style="fill:none;stroke:#e2ae45" stroke-width="12"></circle><circle cx="34" cy="0" r="44" style="fill:none;stroke:#1f6670" stroke-width="12"></circle></g><g transform="translate(600 300) scale(1.4)"><path d="M 0 22 c -22 -14 -32 -26 -32 -38 c 0 -12 18 -18 32 -4 c 14 -14 32 -8 32 4 c 0 12 -10 24 -32 38 z" style="fill:#c06a40"></path></g><g transform="rotate(-5 230 360)"><g transform="translate(150 270)"><path d="M 0 6 Q 0 0 6 0 H 109.2 L 140 30.8 V 174 Q 140 180 134 180 H 6 Q 0 180 0 174 Z" style="fill:#ffffff;stroke:#1f6670" stroke-width="2" stroke-linecap="round" stroke-linejoin="round"></path><path d="M 109.2 0 V 30.8 H 140" style="fill:none;stroke:#1f6670" stroke-width="2" stroke-linecap="round" stroke-linejoin="round"></path><line x1="25.2" x2="114.8" y1="68.4" y2="68.4" style="stroke:#e3dcd0" stroke-width="2" stroke-linecap="round" stroke-linejoin="round"></line><line x1="25.2" x2="114.8" y1="93.60000000000001" y2="93.60000000000001" style="stroke:#e3dcd0" stroke-width="2" stroke-linecap="round" stroke-linejoin="round"></line><line x1="25.2" x2="84" y1="118.80000000000001" y2="118.80000000000001" style="stroke:#e3dcd0" stroke-width="2" stroke-linecap="round" stroke-linejoin="round"></line><text x="70" y="43.199999999999996" font-size="22.400000000000002" font-weight="700" text-anchor="middle" style="fill:#1f6670;font-family:system-ui, -apple-system, &quot;Segoe UI&quot;, Roboto, sans-serif">OUR PLAN</text></g><path transform="translate(176 426) scale(0.7272727272727273)" d="M 0 0 C 8 -22 18 -26 16 -6 C 14 12 26 -14 34 -12 C 40 -10 34 6 42 4 C 52 2 56 -10 62 -4 C 68 2 78 2 110 -6" style="fill:none;stroke:#1f6670" stroke-width="3.5" stroke-linecap="round" stroke-linejoin="round"></path></g><g transform="translate(880 300)"><rect x="0" y="0" width="190" height="310" rx="10" style="fill:#ffffff;stroke:#e3dcd0" stroke-width="3"></rect><rect x="26" y="30" width="58" height="50" rx="6" style="fill:#dcecec"></rect><rect x="106" y="30" width="58" height="50" rx="6" style="fill:#dcecec"></rect><rect x="26" y="110" width="58" height="50" rx="6" style="fill:#f8edd2"></rect><rect x="106" y="110" width="58" height="50" rx="6" style="fill:#dcecec"></rect><rect x="26" y="190" width="58" height="50" rx="6" style="fill:#dcecec"></rect><rect x="106" y="190" width="58" height="50" rx="6" style="fill:#dcecec"></rect><rect x="76" y="252" width="38" height="58" rx="5" style="fill:#c06a40"></rect></g><g transform="translate(520 720)"><circle cx="0" cy="-167.4" r="59.4" style="fill:#1f6670"></circle><path d="M -97.2 0 Q -97.2 -97.2 0 -97.2 Q 97.2 -97.2 97.2 0 Z" style="fill:#1f6670"></path></g><g transform="translate(680 720)"><circle cx="0" cy="-161.2" r="57.2" style="fill:#c06a40"></circle><path d="M -93.6 0 Q -93.6 -93.6 0 -93.6 Q 93.6 -93.6 93.6 0 Z" style="fill:#c06a40"></path></g></svg>