<svg xmlns="http://www.w3.org/2000/svg" viewBox="0 0 480 360" role="img" aria-labelledby="_R_0_-t _R_0_-d" width="480" height="360"><title id="_R_0_-t">A yearly review on the calendar</title><desc id="_R_0_-d">A calendar page with one date circled and a circular arrow, showing a plan that is reviewed on a regular schedule.</desc><g><rect width="480" height="360" style="fill:#fbfaf7"></rect><path d="M 369.9 139.0 Q 393.0 185.0 374.5 234.9 Q 356.0 284.7 298.0 291.5 Q 240.0 298.3 186.0 288.1 Q 132.1 277.8 104.4 231.4 Q 76.7 185.0 109.7 143.1 Q 142.6 101.3 191.3 77.6 Q 240.0 53.9 293.5 73.5 Q 346.9 93.1 369.9 139.0 Z" style="fill:#f8edd2"></path></g><rect x="130" y="60" width="220" height="230" rx="18" style="fill:#ffffff;stroke:#1f5f8b" stroke-width="2"></rect><path d="M 130 106 V 78 Q 130 60 148 60 H 332 Q 350 60 350 78 V 106 Z" style="fill:#1f5f8b"></path><rect x="168" y="44" width="10" height="32" rx="5" style="fill:#174a6d"></rect><rect x="302" y="44" width="10" height="32" rx="5" style="fill:#174a6d"></rect><rect x="160" y="130" width="20" height="16" rx="4" style="fill:#f1e9dc"></rect><rect x="206" y="130" width="20" height="16" rx="4" style="fill:#f1e9dc"></rect><rect x="252" y="130" width="20" height="16" rx="4" style="fill:#f1e9dc"></rect><rect x="298" y="130" width="20" height="16" rx="4" style="fill:#f1e9dc"></rect><rect x="160" y="180" width="20" height="16" rx="4" style="fill:#f1e9dc"></rect><rect x="206" y="180" width="20" height="16" rx="4" style="fill:#f1e9dc"></rect><g><circle cx="262" cy="188" r="22" style="fill:#c4784a"></circle><path d="M 253 188 l 6 6 l 12 -13" style="fill:none;stroke:#ffffff" stroke-width="4" stroke-linecap="round" stroke-linejoin="round"></path></g><rect x="298" y="180" width="20" height="16" rx="4" style="fill:#f1e9dc"></rect><rect x="160" y="230" width="20" height="16" rx="4" style="fill:#f1e9dc"></rect><rect x="206" y="230" width="20" height="16" rx="4" style="fill:#f1e9dc"></rect><rect x="252" y="230" width="20" height="16" rx="4" style="fill:#f1e9dc"></rect><rect x="298" y="230" width="20" height="16" rx="4" style="fill:#f1e9dc"></rect><circle cx="366" cy="252" r="46" style="fill:#6f957a"></circle><g transform="translate(341 227) scale(2.0833333333333335)"><g style="stroke:#ffffff;color:#ffffff" fill="none" stroke-width="2.2" stroke-linecap="round" stroke-linejoin="round"><circle cx="12" cy="12" r="8.5" fill="none"></circle><path d="M12 7.5V12l3 2"></path></g></g></svg>