<svg xmlns="http://www.w3.org/2000/svg" viewBox="0 0 480 360" role="img" aria-labelledby="_R_0_-t _R_0_-d" width="480" height="360"><title id="_R_0_-t">A video call with your attorney</title><desc id="_R_0_-d">A laptop showing a video call with two faceless people in tiles, and a small tile of yourself.</desc><g><rect width="480" height="360" style="fill:#fbf8f3"></rect><path d="M 375.1 137.2 Q 398.9 185.0 369.4 227.9 Q 339.8 270.8 289.9 294.2 Q 240.0 317.5 188.6 295.4 Q 137.3 273.4 112.1 229.2 Q 87.0 185.0 107.4 136.8 Q 127.9 88.6 183.9 79.7 Q 240.0 70.8 295.6 80.1 Q 351.3 89.3 375.1 137.2 Z" style="fill:#e4eee6"></path></g><rect x="96" y="70" width="288" height="186" rx="16" style="fill:#ffffff;stroke:#1b2a30" stroke-width="2"></rect><rect x="110" y="84" width="260" height="158" rx="8" style="fill:#dcecec"></rect><rect x="118" y="92" width="150" height="142" rx="8" style="fill:#ffffff"></rect><g transform="translate(193 228)"><circle cx="0" cy="-73.16" r="25.96" style="fill:#1f6670"></circle><path d="M -42.48 0 Q -42.48 -42.48 0 -42.48 Q 42.48 -42.48 42.48 0 Z" style="fill:#1f6670"></path></g><rect x="276" y="92" width="86" height="66" rx="8" style="fill:#f7e6da"></rect><g transform="translate(319 152)"><circle cx="0" cy="-38.44" r="13.64" style="fill:#c06a40"></circle><path d="M -22.32 0 Q -22.32 -22.32 0 -22.32 Q 22.32 -22.32 22.32 0 Z" style="fill:#c06a40"></path></g><rect x="276" y="166" width="86" height="68" rx="8" style="fill:#e4eee6"></rect><g transform="translate(319 228)"><circle cx="0" cy="-38.44" r="13.64" style="fill:#6f957a"></circle><path d="M -22.32 0 Q -22.32 -22.32 0 -22.32 Q 22.32 -22.32 22.32 0 Z" style="fill:#6f957a"></path></g><path d="M 64 256 H 416 L 400 276 Q 396 282 388 282 H 92 Q 84 282 80 276 Z" style="fill:#e6d7c0;stroke:#1b2a30" stroke-width="2" stroke-linecap="round" stroke-linejoin="round"></path><rect x="210" y="256" width="60" height="8" rx="4" style="fill:#f3ebdf"></rect><circle cx="420" cy="90" r="22" style="fill:#1f6670"></circle><g transform="translate(407 77) scale(1.0833333333333333)"><g style="stroke:#ffffff;color:#ffffff" fill="none" stroke-width="2" stroke-linecap="round" stroke-linejoin="round"><path d="M5 4h4l2 5-2.5 1.5a11 11 0 0 0 5 5L15 13l5 2v4a1 1 0 0 1-1 1A16 16 0 0 1 4 5a1 1 0 0 1 1-1z" fill="none"></path></g></g></svg>