<svg xmlns="http://www.w3.org/2000/svg" viewBox="0 0 600 800" role="img" aria-labelledby="_R_0_-t _R_0_-d" width="600" height="800"><title id="_R_0_-t">Nursing Home Move Checklist (Free checklist)</title><desc id="_R_0_-d">Cover of a Family Plan Law resource titled &quot;Nursing Home Move Checklist&quot;. A sage coloured cover with a hand-heart icon.</desc><rect width="600" height="800" style="fill:#fbf8f3"></rect><rect width="26" height="800" style="fill:#6f957a"></rect><rect x="26" width="4" height="800" style="fill:#e4eee6"></rect><g><rect x="64" y="72" width="136.07999999999998" height="28" rx="14" style="fill:#e4eee6"></rect><text x="132.04" y="90.48" font-size="14" font-weight="600" text-anchor="middle" style="fill:#1b2a30;font-family:system-ui, -apple-system, &quot;Segoe UI&quot;, Roboto, sans-serif">FREE CHECKLIST</text></g><text x="64" y="202" font-size="52" font-weight="700" text-anchor="start" style="fill:#1b2a30;font-family:system-ui, -apple-system, &quot;Segoe UI&quot;, Roboto, sans-serif">Nursing Home Move</text><text x="64" y="261.28" font-size="52" font-weight="700" text-anchor="start" style="fill:#1b2a30;font-family:system-ui, -apple-system, &quot;Segoe UI&quot;, Roboto, sans-serif">Checklist</text><rect x="64" y="430" width="472" height="281" rx="28" style="fill:#e4eee6"></rect><g><path d="M 400.9 530.5 Q 410.0 570.0 394.8 604.2 Q 379.5 638.4 339.8 658.9 Q 300.0 679.4 259.8 659.3 Q 219.6 639.1 199.8 604.6 Q 180.0 570.0 199.1 534.8 Q 218.1 499.6 259.1 485.5 Q 300.0 471.5 345.9 481.3 Q 391.8 491.0 400.9 530.5 Z" style="fill:#ffffff"></path><circle cx="300" cy="570" r="72" style="fill:#ffffff"></circle><circle cx="300" cy="570" r="72" style="fill:none;stroke:#6f957a" stroke-width="2"></circle><g transform="translate(261 531) scale(3.25)"><g style="stroke:#6f957a;color:#6f957a" fill="none" stroke-width="2" stroke-linecap="round" stroke-linejoin="round"><path d="M12 11s-3.5-2-3.5-4.4a1.75 1.75 0 0 1 3.5-.7 1.75 1.75 0 0 1 3.5.7C15.5 9 12 11 12 11z" fill="#e4eee6"></path><path d="M3 15h4l3 2h5a1.5 1.5 0 0 0 0-3h-3M7 20H3"></path></g></g><g><g transform="rotate(-6 130 539)"><rect x="90" y="484" width="84" height="112" rx="10" style="fill:#ffffff;stroke:#6f957a" stroke-width="2"></rect><g><rect x="102" y="502" width="14" height="14" rx="4" style="fill:#6f957a" stroke-width="2"></rect><path d="M105 509 l3 3 5-6" style="fill:none;stroke:#ffffff" stroke-linecap="round" stroke-linejoin="round" stroke-width="2"></path><line x1="124" x2="162" y1="509" y2="509" style="stroke:#e3dcd0" stroke-linecap="round" stroke-linejoin="round" stroke-width="2"></line></g><g><rect x="102" y="532" width="14" height="14" rx="4" style="fill:#6f957a" stroke-width="2"></rect><path d="M105 539 l3 3 5-6" style="fill:none;stroke:#ffffff" stroke-linecap="round" stroke-linejoin="round" stroke-width="2"></path><line x1="124" x2="162" y1="539" y2="539" style="stroke:#e3dcd0" stroke-linecap="round" stroke-linejoin="round" stroke-width="2"></line></g><g><rect x="102" y="562" width="14" height="14" rx="4" style="fill:none;stroke:#e3dcd0" stroke-width="2"></rect><line x1="124" x2="162" y1="569" y2="569" style="stroke:#e3dcd0" stroke-linecap="round" stroke-linejoin="round" stroke-width="2"></line></g></g><g transform="translate(462 711)"><circle cx="0" cy="-74.4" r="26.4" style="fill:#1f6670"></circle><path d="M -43.199999999999996 0 Q -43.199999999999996 -43.199999999999996 0 -43.199999999999996 Q 43.199999999999996 -43.199999999999996 43.199999999999996 0 Z" style="fill:#1f6670"></path></g><g transform="translate(510 711)"><circle cx="0" cy="-38.3904" r="13.622399999999999" style="fill:#6f957a"></circle><path d="M -22.291199999999996 0 Q -22.291199999999996 -22.291199999999996 0 -22.291199999999996 Q 22.291199999999996 -22.291199999999996 22.291199999999996 0 Z" style="fill:#6f957a"></path></g></g></g><line x1="64" x2="536" y1="738" y2="738" style="stroke:#e3dcd0" stroke-width="2" stroke-linecap="round" stroke-linejoin="round"></line><text x="64" y="772" font-size="18" font-weight="700" text-anchor="start" style="fill:#56616a;font-family:system-ui, -apple-system, &quot;Segoe UI&quot;, Roboto, sans-serif">Family Plan Law</text></svg>